# File created by Blade
# Date/Time:  Wed Jan 21 17:05:57 2015
# Frame Rate: 120.000 fps
#------------------------------------------------------
:FULLY-SPECIFIED
:DEGREES
474
root 20.181203 25.598354 -14.428182 -185.329926 5.173700 -185.668506
Spine 52.159759 6.160183 -6.347330
Head -18.101109 -0.327292 3.882810
LeftShoulder 8.083165 -44.124721 24.190865
LeftArm 40.865134 6.795384 -6.514725
LeftForeArm 15.964091 -0.000000 -2.598811
LeftHand -4.527480 -0.000000 15.858424
LeftHandThumb1 -26.253704 0.000000 33.147579
RightShoulder 5.286471 12.012182 -27.255424
RightArm 46.851683 35.501637 20.837329
RightForeArm -39.873412 -0.000000 5.791944
RightHand -10.257313 -0.000000 -7.400789
RightHandThumb1 -24.326973 -0.000000 -32.862282
LeftUpLeg -49.593111 31.920202 -2.644319
LeftLeg 84.565148 -0.000000 -0.000000
LeftFoot -47.854965 18.145754 -11.760497
LeftToeBase 28.228539 -0.000000 -0.000000
RightUpLeg -54.195852 -14.936618 -3.632449
RightLeg 88.292697 -0.000000 -0.000000
RightFoot -50.676430 -27.287906 20.360833
RightToeBase 25.215788 -0.000000 -0.000000
475
root 20.199228 25.930427 -14.512133 -185.543993 5.156002 -185.537926
Spine 51.481503 6.178261 -6.204058
Head -17.933959 -0.580152 3.922956
LeftShoulder 8.028235 -43.530163 23.855692
LeftArm 40.515318 7.019764 -6.234930
LeftForeArm 16.140670 0.000000 -2.577284
LeftHand -4.312126 -0.000000 15.741414
LeftHandThumb1 -26.253704 0.000000 33.147579
RightShoulder 5.223468 11.531784 -26.876031
RightArm 46.581063 35.597514 20.995995
RightForeArm -40.055324 -0.000000 5.680645
RightHand -10.176658 -0.000000 -7.410172
RightHandThumb1 -24.326973 -0.000000 -32.862282
LeftUpLeg -48.155849 31.584909 -2.216286
LeftLeg 83.049735 -0.000000 -0.000000
LeftFoot -47.473281 18.297562 -11.900685
LeftToeBase 28.104197 -0.000000 -0.000000
RightUpLeg -52.808443 -14.948320 -3.648840
RightLeg 86.807591 -0.000000 -0.000000
RightFoot -50.287982 -27.237627 20.291011
RightToeBase 25.194758 -0.000000 -0.000000
476
root 20.210496 26.259053 -14.595298 -185.727357 5.076265 -185.423907
Spine 50.770460 6.130357 -6.056982
Head -17.697635 -0.902699 3.931743
LeftShoulder 7.993411 -42.929046 23.481800
LeftArm 40.174189 7.165292 -6.011739
LeftForeArm 16.119233 -0.000000 -2.499810
LeftHand -4.284825 -0.000000 15.614822
LeftHandThumb1 -26.253704 0.000000 33.147579
RightShoulder 5.188380 11.097914 -26.507589
RightArm 46.045523 35.546891 20.891849
RightForeArm -40.001533 -0.000000 5.717708
RightHand -10.148269 -0.000000 -7.121027
RightHandThumb1 -24.326973 -0.000000 -32.862282
LeftUpLeg -46.788120 31.158638 -1.863906
LeftLeg 81.545931 -0.000000 -0.000000
LeftFoot -47.047908 18.448269 -12.054921
LeftToeBase 27.972107 -0.000000 -0.000000
RightUpLeg -51.452441 -15.004734 -3.700736
RightLeg 85.324567 -0.000000 -0.000000
RightFoot -49.883386 -27.181188 20.213048
RightToeBase 25.157247 -0.000000 -0.000000
477
root 20.218477 26.581463 -14.682296 -185.899576 4.986415 -185.333846
Spine 50.018014 6.069017 -5.946805
Head -17.381277 -1.209956 3.930084
LeftShoulder 7.917244 -42.381108 23.135726
LeftArm 39.840666 7.184357 -5.948340
LeftForeArm 15.831074 -0.000000 -2.268933
LeftHand -4.733215 -0.000000 15.133730
LeftHandThumb1 -26.253704 0.000000 33.147579
RightShoulder 5.207923 10.608160 -26.114089
RightArm 45.505144 35.612378 20.795621
RightForeArm -39.954783 -0.000000 5.757013
RightHand -10.091063 -0.000000 -6.869739
RightHandThumb1 -24.326973 -0.000000 -32.862282
LeftUpLeg -45.427601 30.719968 -1.555947
LeftLeg 80.024092 -0.000000 -0.000000
LeftFoot -46.605113 18.606337 -12.144310
LeftToeBase 27.838780 -0.000000 -0.000000
RightUpLeg -50.130849 -15.129417 -3.767178
RightLeg 83.857738 -0.000000 -0.000000
RightFoot -49.474027 -27.105314 20.113362
RightToeBase 25.122156 -0.000000 -0.000000
478
root 20.236192 26.900931 -14.772495 -186.080877 4.959307 -185.203436
Spine 49.273959 6.086440 -5.816692
Head -17.038046 -1.480119 3.956875
LeftShoulder 7.857310 -42.031706 22.877930
LeftArm 39.377264 7.399867 -6.066706
LeftForeArm 16.362484 -0.000000 -2.370827
LeftHand -4.422026 -0.000000 15.539300
LeftHandThumb1 -26.253704 0.000000 33.147579
RightShoulder 5.234022 10.008619 -25.666433
RightArm 44.773059 35.582372 20.387939
RightForeArm -39.559711 -0.000000 5.926799
RightHand -10.121606 -0.000000 -6.500123
RightHandThumb1 -24.326973 -0.000000 -32.862282
LeftUpLeg -44.060360 30.363550 -1.177906
LeftLeg 78.505753 -0.000000 -0.000000
LeftFoot -46.107007 18.756081 -12.206767
LeftToeBase 27.691404 -0.000000 -0.000000
RightUpLeg -48.802994 -15.119715 -3.770291
RightLeg 82.386692 -0.000000 -0.000000
RightFoot -49.069020 -27.032890 20.128513
RightToeBase 24.935818 -0.000000 -0.000000
479
root 20.248658 27.214888 -14.861864 -186.205639 4.943545 -185.097656
Spine 48.426649 6.167386 -5.681233
Head -16.560397 -1.836625 4.057479
LeftShoulder 7.833284 -41.413056 22.560872
LeftArm 39.093144 7.387760 -6.054087
LeftForeArm 16.464907 0.000000 -2.410327
LeftHand -4.407508 -0.000000 15.520200
LeftHandThumb1 -26.253704 0.000000 33.147579
RightShoulder 5.290913 9.009586 -25.099008
RightArm 43.697047 35.424093 19.229958
RightForeArm -38.421923 -0.000000 6.159330
RightHand -10.171624 0.000000 -6.190498
RightHandThumb1 -24.326973 -0.000000 -32.862282
LeftUpLeg -42.768922 29.998863 -0.875847
LeftLeg 76.976923 -0.000000 -0.000000
LeftFoot -45.642795 18.921751 -12.330601
LeftToeBase 27.554216 -0.000000 -0.000000
RightUpLeg -47.543357 -15.120935 -3.795855
RightLeg 80.916338 -0.000000 -0.000000
RightFoot -48.627957 -26.961171 20.067752
RightToeBase 24.713242 -0.000000 -0.000000
480
root 20.260267 27.522979 -14.954892 -186.337413 4.895317 -184.978677
Spine 47.580835 6.135343 -5.583382
Head -16.036189 -2.087462 4.027435
LeftShoulder 7.753481 -41.272462 22.336101
LeftArm 38.538222 7.620164 -6.404198
LeftForeArm 16.708276 -0.000000 -2.330508
LeftHand -4.393136 -0.000000 15.629781
LeftHandThumb1 -26.253704 0.000000 33.147579
RightShoulder 5.339590 8.462596 -24.714053
RightArm 43.112402 35.505984 19.208639
RightForeArm -38.152312 -0.000000 6.258157
RightHand -10.272603 0.000000 -6.202810
RightHandThumb1 -24.326973 -0.000000 -32.862282
LeftUpLeg -41.492712 29.582291 -0.567627
LeftLeg 75.465790 -0.000000 -0.000000
LeftFoot -45.177646 19.108535 -12.467103
LeftToeBase 27.475213 -0.000000 -0.000000
RightUpLeg -46.280238 -15.162691 -3.808402
RightLeg 79.444438 -0.000000 -0.000000
RightFoot -48.211009 -26.937061 20.046048
RightToeBase 24.813007 -0.000000 -0.000000
481
root 20.271792 27.826362 -15.046141 -186.429362 4.889406 -184.862814
Spine 46.696959 6.195002 -5.468315
Head -15.508057 -2.343123 4.072778
LeftShoulder 7.677237 -41.033557 22.061896
LeftArm 38.130023 7.910404 -6.518704
LeftForeArm 16.648619 -0.000000 -2.253086
LeftHand -4.444591 -0.000000 15.622791
LeftHandThumb1 -26.253704 0.000000 33.147579
RightShoulder 5.300512 7.898972 -24.298774
RightArm 42.574843 35.618806 19.235703
RightForeArm -38.003347 -0.000000 6.341540
RightHand -10.281019 -0.000000 -6.160481
RightHandThumb1 -24.326973 -0.000000 -32.862282
LeftUpLeg -40.265832 29.208904 -0.289469
LeftLeg 73.941694 -0.000000 -0.000000
LeftFoot -44.731487 19.313635 -12.609767
LeftToeBase 27.450863 -0.000000 -0.000000
RightUpLeg -45.072351 -15.189563 -3.801422
RightLeg 77.959547 -0.000000 -0.000000
RightFoot -47.786291 -26.900820 19.983492
RightToeBase 24.504201 -0.000000 -0.000000
